<svg width="839" height="313" viewBox="0 0 839 313" fill="none" xmlns="http://www.w3.org/2000/svg">
<g filter="url(#filter0_d_3_2)">
<path d="M447.927 0C452.216 1.5461 454.407 4.80007 457.052 8.3125C457.533 8.93987 458.014 9.56724 458.509 10.2136C459.504 11.5127 460.497 12.8139 461.487 14.1172C462.8 15.8336 464.134 17.5297 465.482 19.2188C472.239 27.7685 478.183 36.7434 483.927 46C484.301 46.5939 484.675 47.1879 485.06 47.7998C495.742 64.8852 505.236 85.5997 500.814 106.164C496.497 119.97 488.299 130.59 475.927 138C471.995 139.875 468.021 141.514 463.927 143C463.267 142.34 462.607 141.68 461.927 141C462.397 140.443 462.868 139.886 463.353 139.312C469.719 131.509 472.649 125.471 472.329 115.258C470.325 99.032 459.743 83.6248 449.927 71C445.688 72.4131 444.145 75.5028 441.739 79.0625C441.256 79.7741 440.772 80.4856 440.273 81.2188C436.986 86.159 434.037 91.2031 431.364 96.5C430.882 97.4495 430.882 97.4495 430.389 98.4182C425.807 107.865 423.695 119.165 427.052 129.375C428.629 132.995 431.047 135.68 433.818 138.457C434.367 139.221 434.367 139.221 434.927 140C434.597 140.99 434.267 141.98 433.927 143C418.796 137.508 407.579 129.413 400.294 114.703C394.005 99.9682 395.014 86.6925 400.789 71.7734C404.735 62.0872 409.291 52.8218 414.927 44C415.355 43.33 415.783 42.66 416.224 41.9697C422.93 31.5373 430.047 21.575 437.927 12C438.405 11.4186 438.884 10.8373 439.377 10.2383C442.207 6.80883 445.058 3.39758 447.927 0Z" fill="#F5222D"/>
</g>
<path d="M424.927 164C441.757 164 458.587 164 475.927 164C474.18 177.393 472.431 190.74 470.333 204.074C470.098 205.585 469.863 207.096 469.628 208.607C469.02 212.514 468.409 216.42 467.797 220.326C466.819 226.57 465.847 232.814 464.874 239.058C464.525 241.299 464.175 243.539 463.824 245.78C462.438 254.654 461.075 263.532 459.801 272.424C459.366 275.403 458.882 278.136 457.927 281C452.317 281 446.707 281 440.927 281C436.381 251.017 432.071 221.009 428.014 190.956C427.145 184.538 426.228 178.13 425.252 171.727C424.927 169 424.927 169 424.927 164Z" fill="#F5222D"/>
<path d="M450.927 2C474.799 25.0475 500.851 62.9815 501.927 97C501.491 109.404 495.513 121.15 486.927 130C479.977 136.07 472.563 139.865 463.927 143C463.267 142.34 462.607 141.68 461.927 141C462.397 140.443 462.868 139.886 463.353 139.312C469.719 131.509 472.649 125.471 472.329 115.258C470.378 99.455 460.445 84.4631 450.482 72.4531C448.927 70 448.927 70 449.127 68.0811C450.088 65.5803 451.314 64.1828 453.165 62.25C453.821 61.5591 454.476 60.8681 455.152 60.1562C455.841 59.4447 456.53 58.7331 457.239 58C457.917 57.2884 458.594 56.5769 459.292 55.8438C459.952 55.1528 460.611 54.4619 461.29 53.75C461.921 53.0861 462.553 52.4223 463.203 51.7383C464.927 50 464.927 50 467.47 47.9375C469.254 45.9747 469.254 45.9747 468.896 42.7773C467.789 38.4625 466.279 34.603 464.427 30.5625C463.905 29.4003 463.905 29.4003 463.372 28.2146C460.501 21.9543 457.245 15.9549 453.722 10.0393C450.927 5.29669 450.927 5.29669 450.927 2Z" fill="#FFCCC7"/>
<path d="M470.927 164C472.577 164 474.227 164 475.927 164C473.618 182.84 470.734 201.577 467.797 220.326C466.819 226.57 465.847 232.814 464.874 239.058C464.525 241.299 464.175 243.539 463.824 245.78C462.438 254.654 461.075 263.532 459.801 272.424C459.366 275.403 458.882 278.136 457.927 281C454.957 281 451.987 281 448.927 281C449.341 271.078 451.265 261.577 453.278 251.886C454.302 246.957 455.302 242.024 456.302 237.09C456.513 236.048 456.725 235.006 456.943 233.932C460.015 218.714 462.823 203.445 465.651 188.18C466.054 186.018 466.457 183.857 466.861 181.695C467.04 180.715 467.22 179.734 467.406 178.724C468.341 173.719 469.43 168.868 470.927 164Z" fill="#FFCCC7"/>
<path d="M419.732 149.741C420.431 149.738 421.13 149.734 421.851 149.731C424.168 149.722 426.485 149.728 428.802 149.734C430.409 149.733 432.015 149.731 433.622 149.729C436.991 149.726 440.36 149.73 443.73 149.739C448.054 149.751 452.379 149.744 456.703 149.732C460.022 149.725 463.34 149.727 466.658 149.732C468.253 149.734 469.848 149.732 471.443 149.727C473.669 149.722 475.896 149.73 478.122 149.741C480.025 149.744 480.025 149.744 481.967 149.746C484.927 150 484.927 150 486.927 152C487.177 155 487.177 155 486.927 158C484.07 160.857 482.123 160.254 478.122 160.259C477.423 160.262 476.724 160.266 476.003 160.269C473.686 160.278 471.369 160.272 469.052 160.266C467.445 160.267 465.839 160.269 464.232 160.271C460.863 160.274 457.494 160.27 454.124 160.261C449.8 160.249 445.475 160.256 441.151 160.268C437.832 160.275 434.514 160.273 431.196 160.268C429.601 160.266 428.006 160.268 426.411 160.273C424.185 160.278 421.958 160.27 419.732 160.259C417.829 160.256 417.829 160.256 415.887 160.254C412.927 160 412.927 160 410.927 158C410.677 155 410.677 155 410.927 152C413.784 149.143 415.731 149.746 419.732 149.741Z" fill="#F5222D"/>
<path d="M11.04 184V128H23.2L43.6 161.2L34.88 161.12L55.52 128H67.2V184H54V166.56C54 161.76 54.1067 157.44 54.32 153.6C54.5867 149.76 55.0133 145.947 55.6 142.16L57.12 146.32L41.6 170.4H36.32L21.12 146.48L22.64 142.16C23.2267 145.733 23.6267 149.413 23.84 153.2C24.1067 156.933 24.24 161.387 24.24 166.56V184H11.04ZM95.7544 184V156.08L96.3144 160L73.6744 128H89.1144L106.394 152.8L99.3544 152.56L114.954 128H129.914L108.234 160.88L109.434 155.44V184H95.7544Z" fill="#F5222D"/>
<path d="M11.264 281V191.4H33.024V261.8H72.96V281H11.264ZM81.584 281V191.4H144.048V209.96H102.704V262.44H145.328V281H81.584ZM91.824 244.264V226.6H138.288V244.264H91.824ZM198.004 282.28C190.836 282.28 184.351 281.128 178.548 278.824C172.745 276.52 167.753 273.277 163.572 269.096C159.391 264.915 156.191 260.008 153.972 254.376C151.753 248.659 150.644 242.472 150.644 235.816C150.644 229.16 151.796 223.059 154.1 217.512C156.489 211.88 159.86 206.973 164.212 202.792C168.564 198.611 173.684 195.368 179.572 193.064C185.545 190.76 192.031 189.608 199.028 189.608C203.977 189.608 208.628 190.248 212.98 191.528C217.417 192.808 221.428 194.557 225.012 196.776C228.596 198.995 231.625 201.555 234.1 204.456L220.916 218.408C218.783 216.36 216.564 214.653 214.26 213.288C212.041 211.923 209.652 210.856 207.092 210.088C204.532 209.235 201.801 208.808 198.9 208.808C195.145 208.808 191.689 209.491 188.532 210.856C185.46 212.221 182.729 214.141 180.34 216.616C178.036 219.005 176.244 221.864 174.964 225.192C173.684 228.435 173.044 231.976 173.044 235.816C173.044 239.656 173.727 243.24 175.092 246.568C176.457 249.896 178.335 252.797 180.724 255.272C183.113 257.661 185.929 259.581 189.172 261.032C192.5 262.397 196.041 263.08 199.796 263.08C202.441 263.08 204.916 262.653 207.22 261.8C209.609 260.947 211.657 259.795 213.364 258.344C215.071 256.893 216.436 255.187 217.46 253.224C218.484 251.176 218.996 249 218.996 246.696V243.368L221.812 247.72H197.108V230.696H239.22C239.391 231.635 239.519 232.915 239.604 234.536C239.689 236.157 239.732 237.736 239.732 239.272C239.817 240.808 239.86 241.96 239.86 242.728C239.86 248.531 238.793 253.864 236.66 258.728C234.612 263.507 231.711 267.645 227.956 271.144C224.201 274.643 219.764 277.373 214.644 279.336C209.524 281.299 203.977 282.28 198.004 282.28ZM236.207 281L271.663 191.4H290.095L325.295 281H303.279L286.383 235.56C285.7 233.768 285.018 231.848 284.335 229.8C283.652 227.752 282.97 225.661 282.287 223.528C281.604 221.309 280.922 219.176 280.239 217.128C279.642 214.995 279.13 213.032 278.703 211.24L282.543 211.112C282.031 213.245 281.434 215.336 280.751 217.384C280.154 219.432 279.514 221.48 278.831 223.528C278.234 225.491 277.551 227.496 276.783 229.544C276.015 231.507 275.29 233.555 274.607 235.688L257.711 281H236.207ZM253.103 263.848L259.887 247.464H301.103L307.759 263.848H253.103ZM328.794 281V191.4H350.554V261.8H390.49V281H328.794Z" fill="#F5222D"/>
<path d="M582.816 281V191.4H604.576V281H582.816ZM527.264 281V191.4H549.024V281H527.264ZM535.712 246.056L535.84 226.6H594.336V246.056H535.712ZM619.334 281V191.4H681.798V209.96H640.454V262.44H683.078V281H619.334ZM629.574 244.264V226.6H676.038V244.264H629.574ZM694.154 281V191.4H715.914V261.8H755.85V281H694.154ZM764.474 281V191.4H803.13C808.762 191.4 813.754 192.68 818.106 195.24C822.543 197.8 826.042 201.299 828.602 205.736C831.247 210.173 832.57 215.165 832.57 220.712C832.57 226.515 831.247 231.72 828.602 236.328C826.042 240.851 822.543 244.435 818.106 247.08C813.754 249.725 808.762 251.048 803.13 251.048H786.234V281H764.474ZM785.85 231.976H800.058C801.935 231.976 803.642 231.507 805.178 230.568C806.714 229.629 807.951 228.349 808.89 226.728C809.829 225.107 810.298 223.229 810.298 221.096C810.298 218.877 809.829 217 808.89 215.464C807.951 213.928 806.714 212.733 805.178 211.88C803.642 211.027 801.935 210.6 800.058 210.6H785.85V231.976Z" fill="#F5222D"/>
<defs>
<filter id="filter0_d_3_2" x="392" y="0" width="113.925" height="151" filterUnits="userSpaceOnUse" color-interpolation-filters="sRGB">
<feFlood flood-opacity="0" result="BackgroundImageFix"/>
<feColorMatrix in="SourceAlpha" type="matrix" values="0 0 0 0 0 0 0 0 0 0 0 0 0 0 0 0 0 0 127 0" result="hardAlpha"/>
<feOffset dy="4"/>
<feGaussianBlur stdDeviation="2"/>
<feComposite in2="hardAlpha" operator="out"/>
<feColorMatrix type="matrix" values="0 0 0 0 0 0 0 0 0 0 0 0 0 0 0 0 0 0 0.25 0"/>
<feBlend mode="normal" in2="BackgroundImageFix" result="effect1_dropShadow_3_2"/>
<feBlend mode="normal" in="SourceGraphic" in2="effect1_dropShadow_3_2" result="shape"/>
</filter>
</defs>
</svg>
